<svg width="196" height="54" viewBox="0 0 196 54" fill="none" xmlns="http://www.w3.org/2000/svg">
<path d="M19.5 22.5C20.125 22.5 20.6562 22.2812 21.0938 21.8438C21.5312 21.4062 21.75 20.875 21.75 20.25C21.75 19.625 21.5312 19.0938 21.0938 18.6562C20.6562 18.2188 20.125 18 19.5 18C18.875 18 18.3438 18.2188 17.9062 18.6562C17.4688 19.0938 17.25 19.625 17.25 20.25C17.25 20.875 17.4688 21.4062 17.9062 21.8438C18.3438 22.2812 18.875 22.5 19.5 22.5ZM19.5 27C20.275 27 20.9875 26.8187 21.6375 26.4562C22.2875 26.0938 22.8125 25.6125 23.2125 25.0125C22.6625 24.6875 22.075 24.4375 21.45 24.2625C20.825 24.0875 20.175 24 19.5 24C18.825 24 18.175 24.0875 17.55 24.2625C16.925 24.4375 16.3375 24.6875 15.7875 25.0125C16.1875 25.6125 16.7125 26.0938 17.3625 26.4562C18.0125 26.8187 18.725 27 19.5 27ZM12 30C8.525 29.125 5.65625 27.1312 3.39375 24.0187C1.13125 20.9062 0 17.45 0 13.65V4.5L12 0L24 4.5V13.0125C23.525 12.8125 23.0375 12.6313 22.5375 12.4688C22.0375 12.3062 21.525 12.1875 21 12.1125V6.6L12 3.225L3 6.6V13.65C3 14.825 3.15625 16 3.46875 17.175C3.78125 18.35 4.21875 19.4688 4.78125 20.5312C5.34375 21.5938 6.025 22.575 6.825 23.475C7.625 24.375 8.5125 25.125 9.4875 25.725C9.7625 26.525 10.125 27.2875 10.575 28.0125C11.025 28.7375 11.5375 29.3875 12.1125 29.9625C12.0875 29.9625 12.0687 29.9688 12.0562 29.9813C12.0437 29.9938 12.025 30 12 30ZM19.5 30C17.425 30 15.6562 29.2687 14.1938 27.8062C12.7313 26.3438 12 24.575 12 22.5C12 20.425 12.7313 18.6562 14.1938 17.1938C15.6562 15.7313 17.425 15 19.5 15C21.575 15 23.3438 15.7313 24.8062 17.1938C26.2687 18.6562 27 20.425 27 22.5C27 24.575 26.2687 26.3438 24.8062 27.8062C23.3438 29.2687 21.575 30 19.5 30Z" fill="#F4B41A"/>
</svg>
